FFmpeg version SVN-r25716, Copyright (c) 2000-2010 the FFmpeg developers  built on Nov 10 2010 12:23:18 with gcc 4.1.2 20080704 (Red Hat 4.1.2-48)  configuration: --enable-libmp3lame --enable-shared --disable-mmx --arch=x86_64  libavutil     50.33. 0 / 50.33. 0  libavcore      0.12. 1 /  0.12. 1  libavcodec    52.94. 4 / 52.94. 4  libavformat   52.84. 0 / 52.84. 0  libavdevice   52. 2. 2 / 52. 2. 2  libavfilter    1.59. 0 /  1.59. 0  libswscale     0.12. 0 /  0.12. 0Input #0, avi, from '/RAID10/data/converted_video_files/47565.avi':  Duration: 00:00:06.96, start: 0.000000, bitrate: 31585 kb/s    Stream #0.0: Video: msvideo1, rgb555le, 1024x1024, 30 tbr, 30 tbn, 30 tbc[buffer @ 0x4faf510] w:1024 h:1024 pixfmt:rgb555le[ffsink @ 0x4fccde0] auto-inserting filter 'auto-inserted scaler 0' between the filter 'src' and the filter 'out'[scale @ 0x4fcd100] w:1024 h:1024 fmt:rgb555le -> w:1024 h:1024 fmt:yuv420p flags:0x4Output #0, flv, to '/RAID10/data/converted_video_files/47565.flv':  Metadata:    encoder         : Lavf52.84.0    Stream #0.0: Video: flv, yuv420p, 1024x1024, q=2-31, 600 kb/s, 1k tbn, 24 tbcStream mapping:  Stream #0.0 -> #0.0Press [q] to stop encodingframe=    5 fps=  0 q=4.2 size=     456kB time=0.21 bitrate=17974.3kbits/s dup=0 drop=1    frame=   13 fps=  9 q=21.7 size=     547kB time=0.54 bitrate=8261.0kbits/s dup=0 drop=3    frame=   16 fps=  9 q=31.0 size=     558kB time=0.67 bitrate=6857.4kbits/s dup=0 drop=4    frame=   26 fps= 12 q=31.0 size=     600kB time=1.08 bitrate=4537.7kbits/s dup=0 drop=6    frame=   35 fps= 13 q=31.0 size=     621kB time=1.46 bitrate=3489.7kbits/s dup=0 drop=9    frame=   44 fps= 14 q=31.0 size=     673kB time=1.83 bitrate=3008.6kbits/s dup=0 drop=11    frame=   52 fps= 14 q=31.0 size=     713kB time=2.17 bitrate=2693.6kbits/s dup=0 drop=13    frame=   60 fps= 14 q=31.0 size=     724kB time=2.50 bitrate=2372.8kbits/s dup=0 drop=15    frame=   68 fps= 14 q=31.0 size=     765kB time=2.83 bitrate=2211.7kbits/s dup=0 drop=17    frame=   73 fps= 14 q=24.8 size=     800kB time=3.04 bitrate=2153.6kbits/s dup=0 drop=18    frame=   81 fps= 14 q=31.0 size=     813kB time=3.38 bitrate=1972.7kbits/s dup=0 drop=20    frame=   90 fps= 14 q=31.0 size=     855kB time=3.75 bitrate=1868.0kbits/s dup=0 drop=22    frame=   99 fps= 14 q=31.0 size=     898kB time=4.12 bitrate=1782.4kbits/s dup=0 drop=25    frame=  107 fps= 15 q=31.0 size=     912kB time=4.46 bitrate=1675.0kbits/s dup=0 drop=27    frame=  116 fps= 15 q=31.0 size=     959kB time=4.83 bitrate=1624.8kbits/s dup=0 drop=28    frame=  125 fps= 15 q=31.0 size=     999kB time=5.21 bitrate=1571.9kbits/s dup=0 drop=31    frame=  134 fps= 15 q=31.0 size=    1043kB time=5.58 bitrate=1530.7kbits/s dup=0 drop=33    frame=  143 fps= 15 q=31.0 size=    1059kB time=5.96 bitrate=1456.6kbits/s dup=0 drop=35    frame=  152 fps= 15 q=31.0 size=    1099kB time=6.33 bitrate=1421.5kbits/s dup=0 drop=37    frame=  160 fps= 15 q=31.0 size=    1141kB time=6.67 bitrate=1401.5kbits/s dup=0 drop=39    frame=  167 fps= 15 q=31.0 Lsize=    1151kB time=6.96 bitrate=1354.9kbits/s dup=0 drop=42    video:1148kB audio:0kB global headers:0kB muxing overhead 0.245160%